<?xml version="1.0" encoding="UTF-8" standalone="no"?>
<svg
   xmlns:dc="http://purl.org/dc/elements/1.1/"
   xmlns:cc="http://creativecommons.org/ns#"
   xmlns:rdf="http://www.w3.org/1999/02/22-rdf-syntax-ns#"
   xmlns:svg="http://www.w3.org/2000/svg"
   xmlns="http://www.w3.org/2000/svg"
   xmlns:sodipodi="http://sodipodi.sourceforge.net/DTD/sodipodi-0.dtd"
   xmlns:inkscape="http://www.inkscape.org/namespaces/inkscape"
   height="300"
   version="1.1"
   width="300"
   style="overflow:hidden"
   id="svg1832"
   sodipodi:docname="Dokumentation.svg"
   inkscape:version="0.92.4 (5da689c313, 2019-01-14)">
  <metadata
     id="metadata1836">
    <rdf:RDF>
      <cc:Work
         rdf:about="">
        <dc:format>image/svg+xml</dc:format>
        <dc:type
           rdf:resource="http://purl.org/dc/dcmitype/StillImage" />
        <dc:title />
      </cc:Work>
    </rdf:RDF>
  </metadata>
  <sodipodi:namedview
     pagecolor="#ffffff"
     bordercolor="#666666"
     borderopacity="1"
     objecttolerance="10"
     gridtolerance="10"
     guidetolerance="10"
     inkscape:pageopacity="0"
     inkscape:pageshadow="2"
     inkscape:window-width="958"
     inkscape:window-height="1008"
     id="namedview1834"
     showgrid="false"
     inkscape:zoom="1.2551145"
     inkscape:cx="136.23188"
     inkscape:cy="146.15998"
     inkscape:window-x="-7"
     inkscape:window-y="0"
     inkscape:window-maximized="0"
     inkscape:current-layer="svg1832"
     fit-margin-top="0"
     fit-margin-left="0"
     fit-margin-right="0"
     fit-margin-bottom="0" />
  <desc
     id="desc1768">Created with Raphaël 2.3.0</desc>
  <defs
     id="defs1770" />
  <path
     d="M 150,150 7.34152,103.64745 a 150,150 0 0 1 285.31696,0 z"
     style="fill:#fb8c00;fill-opacity:1;stroke:none;stroke-width:1;stroke-linejoin:round"
     id="path1772"
     inkscape:connector-curvature="0" />
  <path
     d="M 150,150 292.65848,103.64745 A 150,150 0 0 1 271.35255,238.16779 Z"
     style="fill:#00acc1;fill-opacity:1;stroke:none;stroke-width:1;stroke-linejoin:round"
     id="path1774"
     inkscape:connector-curvature="0" />
  <path
     d="m 150,150 121.35255,88.16779 A 150,150 0 0 1 150,300 Z"
     style="fill:#7cb342;fill-opacity:1;stroke:none;stroke-width:1;stroke-linejoin:round"
     id="path1776"
     inkscape:connector-curvature="0" />
  <path
     d="M 150,150 V 300 A 150,150 0 0 1 61.83221,271.35255 Z"
     style="fill:#3949ab;fill-opacity:1;stroke:none;stroke-width:1;stroke-linejoin:round"
     id="path1778"
     inkscape:connector-curvature="0" />
  <path
     d="M 150,150 61.83221,271.35255 a 150,150 0 0 1 -54.49069,-75 z"
     style="fill:#8e24aa;fill-opacity:1;stroke:none;stroke-width:1;stroke-linejoin:round"
     id="path1780"
     inkscape:connector-curvature="0" />
  <path
     d="M 150,150 7.34152,196.35255 a 150,150 0 0 1 0,-92.7051 z"
     style="fill:#e53935;fill-opacity:1;stroke:none;stroke-width:1;stroke-linejoin:round"
     id="path1782"
     inkscape:connector-curvature="0" />
  <path
     d="M 150,150 7.34152,103.64745 a 150,150 0 0 1 285.31696,0 z"
     style="fill:#000000;fill-opacity:0;stroke:none"
     id="path1784"
     inkscape:connector-curvature="0" />
  <path
     d="M 150,150 292.65848,103.64745 A 150,150 0 0 1 271.35255,238.16779 Z"
     style="fill:#000000;fill-opacity:0;stroke:none"
     id="path1786"
     inkscape:connector-curvature="0" />
  <path
     d="m 150,150 121.35255,88.16779 A 150,150 0 0 1 150,300 Z"
     style="fill:#000000;fill-opacity:0;stroke:none"
     id="path1788"
     inkscape:connector-curvature="0" />
  <path
     d="M 150,150 V 300 A 150,150 0 0 1 61.83221,271.35255 Z"
     style="fill:#000000;fill-opacity:0;stroke:none"
     id="path1790"
     inkscape:connector-curvature="0" />
  <path
     d="M 150,150 61.83221,271.35255 a 150,150 0 0 1 -54.49069,-75 z"
     style="fill:#000000;fill-opacity:0;stroke:none"
     id="path1792"
     inkscape:connector-curvature="0" />
  <path
     d="M 150,150 7.34152,196.35255 a 150,150 0 0 1 0,-92.7051 z"
     style="fill:#000000;fill-opacity:0;stroke:none"
     id="path1794"
     inkscape:connector-curvature="0" />
</svg>
