<?xml version="1.0" encoding="UTF-8" standalone="no"?>
<svg
   xmlns:dc="http://purl.org/dc/elements/1.1/"
   xmlns:cc="http://creativecommons.org/ns#"
   xmlns:rdf="http://www.w3.org/1999/02/22-rdf-syntax-ns#"
   xmlns:svg="http://www.w3.org/2000/svg"
   xmlns="http://www.w3.org/2000/svg"
   xmlns:sodipodi="http://sodipodi.sourceforge.net/DTD/sodipodi-0.dtd"
   xmlns:inkscape="http://www.inkscape.org/namespaces/inkscape"
   height="300"
   version="1.1"
   width="300"
   style="overflow:hidden"
   id="svg929"
   sodipodi:docname="Code.svg"
   inkscape:version="0.92.4 (5da689c313, 2019-01-14)"
   inkscape:export-filename="E:\Users\pauln\Code_weniger_arbeit.png"
   inkscape:export-xdpi="96"
   inkscape:export-ydpi="96">
  <metadata
     id="metadata933">
    <rdf:RDF>
      <cc:Work
         rdf:about="">
        <dc:format>image/svg+xml</dc:format>
        <dc:type
           rdf:resource="http://purl.org/dc/dcmitype/StillImage" />
        <dc:title />
      </cc:Work>
    </rdf:RDF>
  </metadata>
  <sodipodi:namedview
     pagecolor="#ffffff"
     bordercolor="#666666"
     borderopacity="1"
     objecttolerance="10"
     gridtolerance="10"
     guidetolerance="10"
     inkscape:pageopacity="0"
     inkscape:pageshadow="2"
     inkscape:window-width="958"
     inkscape:window-height="1008"
     id="namedview931"
     showgrid="false"
     inkscape:zoom="1.4990664"
     inkscape:cx="135.56353"
     inkscape:cy="155.33422"
     inkscape:window-x="-7"
     inkscape:window-y="0"
     inkscape:window-maximized="0"
     inkscape:current-layer="svg929"
     fit-margin-top="0"
     fit-margin-left="0"
     fit-margin-right="0"
     fit-margin-bottom="0" />
  <desc
     id="desc875">Created with Raphaël 2.3.0</desc>
  <defs
     id="defs877" />
  <path
     d="M 150,150 16.34902,81.90143 a 150,150 0 0 1 267.30196,0 z"
     style="fill:#8e24aa;fill-opacity:1;stroke:none;stroke-width:1;stroke-linejoin:round"
     id="path879"
     inkscape:connector-curvature="0" />
  <path
     d="M 150,150 283.65098,81.90143 a 150,150 0 0 1 -65.55241,201.74955 z"
     style="fill:#e53935;fill-opacity:1;stroke:none;stroke-width:1;stroke-linejoin:round"
     id="path881"
     inkscape:connector-curvature="0" />
  <path
     d="m 150,150 68.09857,133.65098 A 150,150 0 0 1 43.93398,256.06602 Z"
     style="fill:#7cb342;fill-opacity:1;stroke:none;stroke-width:1;stroke-linejoin:round"
     id="path883"
     inkscape:connector-curvature="0" />
  <path
     d="M 150,150 43.93398,256.06602 A 150,150 0 0 1 1.84675,173.46517 Z"
     style="fill:#00acc1;fill-opacity:1;stroke:none;stroke-width:1;stroke-linejoin:round"
     id="path885"
     inkscape:connector-curvature="0" />
  <path
     d="M 150,150 1.84675,173.46517 A 150,150 0 0 1 16.34902,81.90143 Z"
     style="fill:#3949ab;fill-opacity:1;stroke:none;stroke-width:1;stroke-linejoin:round"
     id="path887"
     inkscape:connector-curvature="0" />
  <path
     d="M 150,150 16.34902,81.90143 a 150,150 0 0 1 267.30196,0 z"
     style="fill:#000000;fill-opacity:0;stroke:none"
     id="path889"
     inkscape:connector-curvature="0" />
  <path
     d="M 150,150 283.65098,81.90143 a 150,150 0 0 1 -65.55241,201.74955 z"
     style="fill:#000000;fill-opacity:0;stroke:none"
     id="path891"
     inkscape:connector-curvature="0" />
  <path
     d="m 150,150 68.09857,133.65098 A 150,150 0 0 1 43.93398,256.06602 Z"
     style="fill:#000000;fill-opacity:0;stroke:none"
     id="path893"
     inkscape:connector-curvature="0" />
  <path
     d="M 150,150 43.93398,256.06602 A 150,150 0 0 1 1.84675,173.46517 Z"
     style="fill:#000000;fill-opacity:0;stroke:none"
     id="path895"
     inkscape:connector-curvature="0" />
  <path
     d="M 150,150 1.84675,173.46517 A 150,150 0 0 1 16.34902,81.90143 Z"
     style="fill:#000000;fill-opacity:0;stroke:none"
     id="path897"
     inkscape:connector-curvature="0" />
</svg>
