<?xml version="1.0" encoding="UTF-8" standalone="no"?>
<svg
   xmlns:dc="http://purl.org/dc/elements/1.1/"
   xmlns:cc="http://creativecommons.org/ns#"
   xmlns:rdf="http://www.w3.org/1999/02/22-rdf-syntax-ns#"
   xmlns:svg="http://www.w3.org/2000/svg"
   xmlns="http://www.w3.org/2000/svg"
   xmlns:sodipodi="http://sodipodi.sourceforge.net/DTD/sodipodi-0.dtd"
   xmlns:inkscape="http://www.inkscape.org/namespaces/inkscape"
   height="300"
   version="1.1"
   width="300"
   style="overflow:hidden"
   id="svg2754"
   sodipodi:docname="Kundenkommunikation.svg"
   inkscape:version="0.92.4 (5da689c313, 2019-01-14)">
  <metadata
     id="metadata2758">
    <rdf:RDF>
      <cc:Work
         rdf:about="">
        <dc:format>image/svg+xml</dc:format>
        <dc:type
           rdf:resource="http://purl.org/dc/dcmitype/StillImage" />
        <dc:title></dc:title>
      </cc:Work>
    </rdf:RDF>
  </metadata>
  <sodipodi:namedview
     pagecolor="#ffffff"
     bordercolor="#666666"
     borderopacity="1"
     objecttolerance="10"
     gridtolerance="10"
     guidetolerance="10"
     inkscape:pageopacity="0"
     inkscape:pageshadow="2"
     inkscape:window-width="958"
     inkscape:window-height="1008"
     id="namedview2756"
     showgrid="false"
     inkscape:zoom="0.8875"
     inkscape:cx="146.76458"
     inkscape:cy="-13.284193"
     inkscape:window-x="-7"
     inkscape:window-y="0"
     inkscape:window-maximized="0"
     inkscape:current-layer="svg2754"
     fit-margin-top="0"
     fit-margin-left="0"
     fit-margin-right="0"
     fit-margin-bottom="0" />
  <desc
     id="desc2710">Created with Raphaël 2.3.0</desc>
  <defs
     id="defs2712" />
  <path
     d="M 150,150 H 0 a 150,150 0 0 1 300,0 z"
     style="fill:#7cb342;fill-opacity:1;stroke:none;stroke-width:1;stroke-linejoin:round"
     id="path2714"
     inkscape:connector-curvature="0" />
  <path
     d="M 150,150 H 300 A 150,150 0 0 1 196.35255,292.65848 Z"
     style="fill:#8e24aa;fill-opacity:1;stroke:none;stroke-width:1;stroke-linejoin:round"
     id="path2716"
     inkscape:connector-curvature="0" />
  <path
     d="m 150,150 46.35255,142.65848 A 150,150 0 0 1 28.64745,238.16779 Z"
     style="fill:#3949ab;fill-opacity:1;stroke:none;stroke-width:1;stroke-linejoin:round"
     id="path2718"
     inkscape:connector-curvature="0" />
  <path
     d="M 150,150 28.64745,238.16779 A 150,150 0 0 1 0,150 Z"
     style="fill:#fb8c00;fill-opacity:1;stroke:none;stroke-width:1;stroke-linejoin:round"
     id="path2720"
     inkscape:connector-curvature="0" />
  <path
     d="M 150,150 H 0 a 150,150 0 0 1 300,0 z"
     style="fill:#000000;fill-opacity:0;stroke:none"
     id="path2722"
     inkscape:connector-curvature="0" />
  <path
     d="M 150,150 H 300 A 150,150 0 0 1 196.35255,292.65848 Z"
     style="fill:#000000;fill-opacity:0;stroke:none"
     id="path2724"
     inkscape:connector-curvature="0" />
  <path
     d="m 150,150 46.35255,142.65848 A 150,150 0 0 1 28.64745,238.16779 Z"
     style="fill:#000000;fill-opacity:0;stroke:none"
     id="path2726"
     inkscape:connector-curvature="0" />
  <path
     d="M 150,150 28.64745,238.16779 A 150,150 0 0 1 0,150 Z"
     style="fill:#000000;fill-opacity:0;stroke:none"
     id="path2728"
     inkscape:connector-curvature="0" />
</svg>
